<svg width="14" height="14" viewBox="0 0 14 14" fill="none" xmlns="http://www.w3.org/2000/svg">
<path d="M2.80495 11.4261L1.82031 0.381836H12.6402L11.6546 11.4244L7.2237 12.6528L2.80495 11.4261Z" fill="#1572B6"/>
<path d="M7.23047 11.7133L10.8109 10.7206L11.6532 1.28418H7.23047V11.7133Z" fill="#33A9DC"/>
<path d="M7.23047 5.28555H9.02288L9.14667 3.89849H7.23047V2.54395H10.6271L10.5945 2.90738L10.2616 6.64009H7.23047V5.28555Z" fill="white"/>
<path d="M7.2361 8.80326L7.23013 8.80502L5.72163 8.39771L5.62516 7.31738H4.26562L4.45533 9.44424L7.22993 10.2143L7.2361 10.2125V8.80326Z" fill="#EBEBEB"/>
<path d="M8.90438 6.58301L8.74122 8.39697L7.23047 8.80477V10.2141L10.0073 9.44448L10.0277 9.21561L10.2633 6.58301H8.90438Z" fill="white"/>
<path d="M7.23291 2.54395V3.89849H3.96109L3.93396 3.59411L3.87226 2.90738L3.83984 2.54395H7.23291ZM7.22831 5.28574V6.64029H5.73881L5.71168 6.33591L5.64989 5.64918L5.61757 5.28574H7.22831Z" fill="#EBEBEB"/>
</svg>
