<svg width="15" height="16" viewBox="0 0 15 16" fill="none" xmlns="http://www.w3.org/2000/svg">
<path d="M0.164062 0.910156H14.8341V15.5803H0.164062V0.910156Z" fill="#F0DB4F"/>
<path d="M13.6333 12.0884C13.5258 11.4191 13.0894 10.857 11.7967 10.3328C11.3476 10.1264 10.847 9.97867 10.6978 9.63836C10.6449 9.44031 10.6378 9.32875 10.6713 9.20887C10.7675 8.8198 11.232 8.69851 11.6 8.81008C11.8371 8.88953 12.0615 9.07222 12.1969 9.36367C12.8299 8.95375 12.8286 8.95644 13.2707 8.67472C13.1088 8.42383 13.0225 8.30804 12.9165 8.2007C12.5358 7.77543 12.017 7.5564 11.1873 7.57316L10.7551 7.62906C10.341 7.73371 9.9463 7.95109 9.71485 8.24254C9.0204 9.03051 9.21844 10.4096 10.0635 10.9771C10.896 11.602 12.119 11.7441 12.2752 12.3284C12.4272 13.0437 11.7495 13.2753 11.0759 13.193C10.5795 13.0898 10.3034 12.8375 10.0049 12.3787C9.45551 12.6966 9.45551 12.6966 8.89067 13.0214C9.02461 13.3143 9.16536 13.4468 9.38989 13.7005C10.4525 14.7784 13.1118 14.7255 13.5887 13.094C13.6081 13.038 13.7365 12.6644 13.6333 12.0884ZM8.13891 7.65953H6.76676L6.76114 11.207C6.76114 11.9615 6.80016 12.6531 6.67746 12.8651C6.47672 13.2821 5.95653 13.2304 5.71946 13.1495C5.47817 13.0309 5.35547 12.8623 5.21332 12.6239C5.1743 12.5555 5.145 12.5025 5.13516 12.4984L4.01953 13.1816C4.20504 13.5624 4.47832 13.8929 4.82836 14.1075C5.35125 14.4214 6.05403 14.5176 6.78903 14.3488C7.26739 14.2095 7.68012 13.9209 7.89621 13.4815C8.20864 12.9055 8.14161 12.2084 8.13879 11.4373C8.14582 10.1793 8.13891 8.92152 8.13891 7.65953Z" fill="#323330"/>
</svg>
