<svg width="18" height="19" viewBox="0 0 18 19" fill="none" xmlns="http://www.w3.org/2000/svg">
<path fill-rule="evenodd" clip-rule="evenodd" d="M11.8808 6.60547C12.0973 7.23185 12.2532 7.87131 12.3045 8.53411C12.3682 9.35637 12.339 10.1728 12.1657 10.9816C12.161 11.0039 12.151 11.0248 12.1436 11.0464C12.0892 11.0465 12.0337 11.0398 11.9806 11.048C11.5315 11.1185 11.0828 11.1917 10.6341 11.2644C10.1703 11.3395 9.70578 11.4117 9.24278 11.492C9.07873 11.5203 8.87569 11.4864 8.80945 11.7133C8.80756 11.7196 8.78868 11.7206 8.77775 11.7241L8.80014 10.3682L8.77734 7.0964L8.99347 7.0593C9.34693 7.00142 9.70038 6.94274 10.0541 6.88648C10.4762 6.81943 10.8988 6.75427 11.3212 6.68884C11.5075 6.65984 11.6941 6.63326 11.8808 6.60547Z" fill="#439934"/>
<path fill-rule="evenodd" clip-rule="evenodd" d="M8.33258 15.6771C8.10459 15.4811 7.86863 15.2937 7.65008 15.0876C6.47409 13.9784 5.61392 12.6729 5.19031 11.0989C5.07361 10.6657 4.99577 10.2255 4.97081 9.77789C4.95327 9.46463 4.92791 9.14854 4.95004 8.83691C5.00899 8.00803 5.12879 7.18712 5.37189 6.38873L5.38525 6.37012C5.40886 6.40155 5.44285 6.42934 5.45486 6.46482C5.69216 7.16364 5.92771 7.86301 6.16205 8.56277C6.89837 10.7618 7.63376 12.9613 8.3713 15.1598C8.38573 15.2027 8.4231 15.2379 8.44995 15.2766L8.33258 15.6771Z" fill="#45A538"/>
<path fill-rule="evenodd" clip-rule="evenodd" d="M11.8795 6.60609C11.6928 6.63388 11.5061 6.66046 11.3198 6.68919C10.8974 6.75462 10.4748 6.81978 10.0527 6.88683C9.69899 6.94309 9.34553 7.00178 8.99207 7.05965L8.77595 7.09675L8.77433 6.95577C8.76718 6.83989 8.7549 6.72413 8.75355 6.60825C8.74424 5.86922 8.73844 5.1302 8.72927 4.39117C8.7236 3.92858 8.7151 3.46611 8.70566 3.00365C8.69986 2.71629 8.69365 2.42881 8.6807 2.14186C8.67369 1.98766 8.64886 1.83427 8.63875 1.68007C8.63308 1.59143 8.6409 1.50213 8.64266 1.41309C8.75288 1.62664 8.86067 1.84182 8.97399 2.05376C9.15301 2.38887 9.43821 2.63575 9.69494 2.90517C10.7099 3.96986 11.4304 5.20777 11.8795 6.60609Z" fill="#46A037"/>
<path fill-rule="evenodd" clip-rule="evenodd" d="M8.77696 11.7243C8.78788 11.7207 8.80691 11.7197 8.80866 11.7135C8.8749 11.4865 9.07794 11.5204 9.24198 11.4921C9.70499 11.4119 10.1695 11.3396 10.6333 11.2645C11.082 11.1918 11.5307 11.1187 11.9798 11.0481C12.033 11.0397 12.0884 11.0466 12.1428 11.0465C12.0589 11.346 11.9928 11.6519 11.8863 11.9432C11.7654 12.2736 11.6192 12.596 11.4639 12.9121C11.2315 13.3836 10.9437 13.8257 10.6068 14.2292C10.348 14.5406 10.0594 14.8283 9.77015 15.1126C9.61028 15.2698 9.42181 15.3978 9.24643 15.539L9.20097 15.508L9.03719 15.368L8.86775 14.9966C8.75201 14.5633 8.68887 14.1177 8.67969 13.6694L8.68279 13.5937L8.70586 13.2664C8.71355 13.1547 8.7238 13.0431 8.72852 12.9311C8.74593 12.5288 8.76104 12.1266 8.77696 11.7243Z" fill="#409433"/>
<path fill-rule="evenodd" clip-rule="evenodd" d="M8.77627 11.724C8.76035 12.1263 8.74524 12.5286 8.72811 12.931C8.72339 13.043 8.71313 13.1546 8.70544 13.2663L8.60224 13.3053C8.37303 12.6304 8.14369 11.9628 7.91934 11.2934C7.54834 10.1859 7.1818 9.0767 6.81134 7.96898C6.51213 7.07487 6.21083 6.18146 5.90746 5.28876C5.89329 5.24694 5.85255 5.2143 5.82422 5.17733L6.48473 3.96289C6.50739 4.00228 6.53734 4.03911 6.55164 4.08147C6.85755 4.98564 7.1619 5.89033 7.4647 6.79555C7.85809 7.97329 8.24905 9.15198 8.64217 10.3299C8.65782 10.3769 8.68372 10.4204 8.70841 10.4731L8.7988 10.3679L8.77627 11.724Z" fill="#4FAA41"/>
<path fill-rule="evenodd" clip-rule="evenodd" d="M5.82423 5.17773C5.85256 5.2147 5.89317 5.24735 5.90747 5.28917C6.21084 6.18187 6.51214 7.07528 6.81135 7.96938C7.18181 9.07711 7.54835 10.1863 7.91935 11.2938C8.14357 11.9631 8.37291 12.6308 8.60225 13.3057L8.70546 13.2667L8.68239 13.594L8.66148 13.6694C8.62559 14.0277 8.59537 14.3868 8.55166 14.7443C8.52967 14.9235 8.48299 15.0994 8.44751 15.2768C8.4208 15.2381 8.3833 15.2029 8.36886 15.16C7.63132 12.9614 6.89594 10.762 6.15961 8.56297C5.92536 7.86316 5.68963 7.16384 5.45242 6.46502C5.44042 6.42954 5.40656 6.40175 5.38281 6.37032L5.82423 5.17773Z" fill="#4AA73C"/>
<path fill-rule="evenodd" clip-rule="evenodd" d="M8.80235 10.3682L8.71197 10.4735C8.68728 10.4207 8.66138 10.3771 8.64573 10.3302C8.25274 9.1523 7.86164 7.97362 7.46825 6.79587C7.16546 5.89066 6.8611 4.98596 6.5552 4.0818C6.54103 4.03944 6.51108 4.00247 6.48828 3.96321L7.30515 2.88867C7.33092 2.92307 7.36761 2.9537 7.38097 2.99242C7.60775 3.6563 7.8325 4.32099 8.05591 4.98608C8.26461 5.6072 8.47021 6.22926 8.68134 6.84956C8.69551 6.89112 8.74475 6.92053 8.77767 6.9556L8.77928 7.09658C8.78711 8.1869 8.7948 9.27763 8.80235 10.3682Z" fill="#57AE47"/>
<path fill-rule="evenodd" clip-rule="evenodd" d="M8.77721 6.95534C8.74429 6.92026 8.69505 6.89085 8.68088 6.8493C8.46975 6.22899 8.26415 5.60694 8.05545 4.98582C7.83204 4.32072 7.60729 3.65617 7.38051 2.99215C7.36715 2.95343 7.33045 2.92281 7.30469 2.88841C7.57032 2.62831 7.82772 2.3589 8.10402 2.1108C8.34968 1.89036 8.54719 1.654 8.55623 1.30567C8.55663 1.29124 8.56419 1.2768 8.57579 1.23633L8.64581 1.41252C8.64405 1.50169 8.63609 1.59087 8.64189 1.6795C8.65201 1.8337 8.67683 1.98709 8.68385 2.14129C8.6968 2.42824 8.70301 2.71573 8.70881 3.00308C8.71812 3.46554 8.72662 3.92801 8.73242 4.39061C8.74146 5.12963 8.74739 5.86866 8.7567 6.60768C8.75778 6.72384 8.76992 6.83945 8.77721 6.95534Z" fill="#60B24F"/>
<path fill-rule="evenodd" clip-rule="evenodd" d="M8.4494 15.2767C8.48488 15.0993 8.53156 14.9233 8.55355 14.7443C8.59739 14.3869 8.62748 14.0276 8.66336 13.6693L8.67227 13.668L8.68117 13.6695C8.69035 14.1178 8.75349 14.5634 8.86923 14.9967C8.84549 15.028 8.8119 15.0559 8.79935 15.0912C8.70127 15.3678 8.60886 15.6465 8.51024 15.9231C8.49675 15.9609 8.45925 15.9903 8.43281 16.0235L8.33203 15.6773L8.4494 15.2767Z" fill="#A9AA88"/>
<path fill-rule="evenodd" clip-rule="evenodd" d="M8.43359 16.0239C8.46004 15.9907 8.49767 15.9613 8.51103 15.9235C8.60965 15.6469 8.70219 15.3683 8.80014 15.0916C8.81268 15.0563 8.84614 15.0284 8.87002 14.9971L9.03933 15.3686C9.00587 15.4161 8.95973 15.4589 8.94112 15.5117L8.6168 16.4641C8.60344 16.5022 8.55784 16.5292 8.52735 16.5615L8.43359 16.0239Z" fill="#B6B598"/>
<path fill-rule="evenodd" clip-rule="evenodd" d="M8.52734 16.561C8.55797 16.5289 8.60343 16.5018 8.61679 16.4636L8.94111 15.5113C8.95959 15.4586 9.00586 15.4157 9.03932 15.3682L9.20323 15.5081C9.12404 15.5863 9.08006 15.6767 9.1065 15.791L9.05672 15.9539C9.03406 15.9819 9.00127 16.0061 8.99008 16.0381C8.87689 16.3623 8.76883 16.6882 8.65483 17.0124C8.6404 17.0536 8.60033 17.0858 8.572 17.122C8.55729 16.9348 8.54232 16.7481 8.52734 16.561Z" fill="#C2C1A7"/>
<path fill-rule="evenodd" clip-rule="evenodd" d="M8.57227 17.1221C8.60046 17.0858 8.64053 17.0536 8.6551 17.0126C8.7691 16.6885 8.87716 16.3626 8.99035 16.0383C9.00154 16.0064 9.03419 15.982 9.05699 15.9541L8.98832 16.7022C8.96998 16.7233 8.9434 16.7418 8.93463 16.7665C8.85706 16.9843 8.78394 17.2036 8.7061 17.4214C8.69004 17.4663 8.65928 17.5059 8.63527 17.5479C8.61395 17.52 8.57578 17.493 8.57402 17.4639C8.56714 17.3504 8.57186 17.2361 8.57227 17.1221Z" fill="#CECDB7"/>
<path fill-rule="evenodd" clip-rule="evenodd" d="M8.63281 17.5479C8.65683 17.5058 8.68759 17.4661 8.70364 17.4213C8.78162 17.2037 8.8546 16.9844 8.93217 16.7665C8.94094 16.7418 8.96765 16.7235 8.98587 16.7021L8.98748 17.1932L8.82317 17.6147L8.63281 17.5479Z" fill="#DBDAC7"/>
<path fill-rule="evenodd" clip-rule="evenodd" d="M8.82422 17.6148L8.98854 17.1934L9.0224 17.692L8.82422 17.6148Z" fill="#EBE9DC"/>
<path fill-rule="evenodd" clip-rule="evenodd" d="M9.10537 15.7907C9.07892 15.6764 9.12277 15.5859 9.2021 15.5078L9.24756 15.5388L9.10537 15.7907Z" fill="#CECDB7"/>
<path fill-rule="evenodd" clip-rule="evenodd" d="M8.68187 13.6693L8.67297 13.6678L8.66406 13.6692L8.68497 13.5938L8.68187 13.6693Z" fill="#4FAA41"/>
</svg>
