<svg width="18" height="18" viewBox="0 0 18 18" fill="none" xmlns="http://www.w3.org/2000/svg">
<path d="M16.6947 16.6239L16.3572 16.2965C16.0373 15.8717 15.6257 15.4985 15.1938 15.1887C14.8494 14.9414 14.0762 14.6075 13.9325 14.2068L13.906 14.1816C14.1503 14.154 14.4355 14.0657 14.6609 14.0052C15.0395 13.9038 15.352 13.93 15.743 13.8291C15.9193 13.7788 16.1171 13.7283 16.2462 13.678V13.5773C16.1171 13.3746 15.933 13.1062 15.7175 12.9227C15.1537 12.4427 14.5508 11.963 13.9172 11.563C13.5658 11.3413 13.1377 11.1971 12.7654 11.0091C12.6401 10.9458 12.4232 10.9129 12.3403 10.8076C12.1446 10.5582 12.0399 10.2421 11.8889 9.95162C11.5729 9.34293 11.2632 8.67823 10.9832 8.0378C10.7922 7.60112 10.6679 7.17063 10.4297 6.77886C9.28642 4.8991 8.056 3.76469 6.14979 2.64951C5.74395 2.41233 5.25565 2.31878 4.73949 2.19619C4.46282 2.17954 4.18577 2.16263 3.90884 2.14573C3.73967 2.07527 3.56378 1.86842 3.40532 1.76802C2.77353 1.36902 1.15366 0.501216 0.685883 1.64221C0.390506 2.36239 1.12721 3.0649 1.39071 3.42996C1.57589 3.68572 1.81268 3.97284 1.94469 4.26073C2.03179 4.45004 2.04663 4.63986 2.12109 4.84C2.30407 5.3332 2.46318 5.86976 2.7001 6.32541C2.81973 6.55613 2.95161 6.79899 3.10297 7.0052C3.19562 7.13179 3.3546 7.18754 3.37977 7.38291C3.2244 7.60047 3.2155 7.9383 3.12814 8.21394C2.73456 9.45468 2.88321 10.997 3.45552 11.9153C3.63101 12.1973 4.04472 12.8019 4.61367 12.5699C5.11126 12.3673 5.02996 11.7391 5.17229 11.185C5.20443 11.0596 5.14842 10.9672 5.27746 10.8829V10.9081C5.40949 11.2144 5.55073 11.5167 5.70098 11.8145C6.03649 12.3548 6.58995 12.9193 7.09438 13.3003C7.35595 13.4978 7.60022 13.8393 7.85831 13.9549V13.9419H7.88683C7.8214 13.8128 7.71881 13.7913 7.63519 13.7091C7.43815 13.516 7.2189 13.2727 7.05618 13.0513C6.59731 12.4285 6.19186 11.7452 5.82241 11.0354C5.64588 10.6966 5.49245 10.322 5.34379 9.97717C5.28662 9.84426 5.28727 9.64269 5.16778 9.57392C5.0048 9.82658 4.76491 10.0307 4.63883 10.3292C4.4374 10.8061 4.41146 11.3879 4.33674 11.9909C4.29248 12.0066 4.31223 11.9958 4.28629 12.0159C3.93555 11.9314 3.81245 11.5705 3.68198 11.2606C3.35228 10.4773 3.29112 9.21621 3.5812 8.31472C3.65631 8.08128 3.99556 7.34678 3.85813 7.13115C3.79257 6.91629 3.5763 6.79177 3.45539 6.62749C3.30557 6.42438 3.15614 6.15701 3.05239 5.92241C2.78256 5.31191 2.65674 4.62631 2.37259 4.00897C2.23671 3.71385 2.00715 3.41512 1.81862 3.1529C1.60995 2.86217 1.37613 2.64809 1.21418 2.29671C1.15676 2.1718 1.07856 1.97178 1.16386 1.84338C1.19095 1.7568 1.22928 1.72066 1.31496 1.6924C1.46117 1.57975 1.86765 1.72983 2.01992 1.79293C2.42369 1.96068 2.76075 2.11553 3.10284 2.34213C3.26686 2.45104 3.43306 2.58602 3.63153 2.71506H3.85813C4.21261 2.71506 4.60967 2.745 4.94092 2.84565C5.52613 3.0236 6.05068 3.30272 6.52711 3.60352C7.97832 4.51998 9.16486 5.82563 9.97666 7.38162C10.1073 7.63222 10.1638 7.87185 10.2788 8.13755C10.5108 8.67346 10.8032 9.22511 11.034 9.74916C11.2645 10.2722 11.489 10.7998 11.8147 11.2349C11.986 11.4636 12.6472 11.5865 12.9477 11.7136C13.1585 11.8025 13.5036 11.8954 13.7031 12.0155C14.0842 12.2455 14.4534 12.5193 14.8111 12.7711C14.9897 12.8968 15.5389 13.1729 15.5664 13.4005C14.6808 13.3763 14.0045 13.4589 13.4262 13.7026C13.2619 13.7719 12.9997 13.7739 12.9729 13.9797C13.0632 14.0743 13.0773 14.2157 13.149 14.3321C13.287 14.5553 13.5202 14.855 13.7282 15.0119C13.9555 15.1835 14.1896 15.3669 14.4333 15.5154C14.8667 15.7796 15.3504 15.9305 15.7677 16.1952C16.0136 16.3513 16.2784 16.5479 16.5181 16.7239C16.6368 16.811 16.633 16.9464 16.8911 17.0009V16.9759C16.7622 16.8733 16.7691 16.7316 16.6947 16.6239ZM4.31145 3.80766C4.12679 3.80418 3.98704 3.82792 3.858 3.85786V3.8767H3.88355C3.97168 4.00574 4.12718 4.17737 4.23596 4.33325L4.48785 4.86336L4.51276 4.83923C4.66877 4.72915 4.74026 4.55392 4.73936 4.28551C4.67703 4.21983 4.66761 4.13763 4.61367 4.05917C4.54166 3.95477 4.40217 3.89554 4.31145 3.80766Z" fill="#00618A"/>
</svg>
