<svg width="16" height="16" viewBox="0 0 16 16" fill="none" xmlns="http://www.w3.org/2000/svg">
<path d="M13.7154 3.80484L8.54774 0.804258C8.22184 0.618633 7.7975 0.618633 7.46902 0.804258L2.24621 3.80484C1.90988 3.99832 1.67188 4.36195 1.67188 4.7509V10.7441C1.67188 11.133 1.91609 11.4968 2.25242 11.6913L3.6323 12.4751C4.29184 12.7999 4.52492 12.7999 4.82504 12.7999C5.80156 12.7999 6.35938 12.2094 6.35938 11.1795V5.26266C6.35938 5.1791 6.3159 5.05477 6.23387 5.05477H5.57492C5.49148 5.05477 5.30469 5.1791 5.30469 5.26254V11.1793C5.30469 11.6359 4.89172 12.0902 4.11992 11.7043L2.6941 10.8825C2.64441 10.8555 2.60938 10.8013 2.60938 10.7441V4.7509C2.60938 4.69441 2.67441 4.6377 2.72445 4.60875L7.93039 1.61332C7.97902 1.58578 8.05051 1.58578 8.09902 1.61332L13.2414 4.60805C13.2907 4.6377 13.2733 4.69266 13.2733 4.7509V10.7441C13.2733 10.8013 13.2948 10.857 13.2461 10.8845L8.07981 13.8817C8.03551 13.9083 7.98055 13.9083 7.93203 13.8817L6.60699 13.0908C6.56703 13.0676 6.51957 13.0593 6.48125 13.0807C6.11258 13.2896 6.04461 13.3174 5.69879 13.4373C5.61371 13.467 5.4882 13.5184 5.74684 13.6634L7.48098 14.6892C7.64654 14.7848 7.83435 14.8352 8.02555 14.8352C8.21797 14.8352 8.40641 14.7853 8.57246 14.6892L13.7152 11.6913C14.0516 11.4954 14.2109 11.133 14.2109 10.7441V4.7509C14.2109 4.36195 14.0516 3.99926 13.7154 3.80484ZM9.63008 9.79442C8.25594 9.79442 7.95324 9.41531 7.85234 8.73199C7.84063 8.6584 7.77816 8.57039 7.70328 8.57039H7.03168C6.94859 8.57039 6.8818 8.67117 6.8818 8.75391C6.8818 9.62883 7.35746 10.6889 9.6302 10.6889C11.2754 10.6889 12.2186 10.0497 12.2186 8.91832C12.2186 7.7966 11.4608 7.50223 9.86527 7.29106C8.25254 7.07789 8.08871 6.9702 8.08871 6.59238C8.08871 6.2809 8.22746 5.86547 9.4216 5.86547C10.4886 5.86547 10.8819 6.09445 11.0437 6.81363C11.0575 6.88125 11.1193 6.92977 11.189 6.92977H11.8633C11.9048 6.92977 11.9444 6.91301 11.9735 6.88336C12.0016 6.85149 12.0165 6.81152 12.0127 6.76863C11.9083 5.5302 11.0855 4.95305 9.42148 4.95305C7.94129 4.95305 7.05828 5.57813 7.05828 6.6259C7.05828 7.76238 7.93684 8.07645 9.35774 8.21695C11.0575 8.38359 11.1897 8.63203 11.1897 8.96637C11.1897 9.54703 10.7236 9.79442 9.63008 9.79442Z" fill="#83CD29"/>
</svg>
