<svg width="16" height="16" viewBox="0 0 16 16" fill="none" xmlns="http://www.w3.org/2000/svg">
<path fill-rule="evenodd" clip-rule="evenodd" d="M14.9628 9.81193C14.91 9.46962 14.6225 9.24544 14.288 9.2303C14.167 9.22479 14.044 9.23746 13.9233 9.25283C13.7775 9.27136 13.6334 9.30421 13.488 9.32591C13.3874 9.34093 13.2855 9.34785 13.1851 9.35817L13.1826 9.34515C13.3701 8.99111 13.5654 8.64093 13.7428 8.28184C13.8787 8.0064 13.9951 7.72098 14.1154 7.43791C14.3143 6.9689 14.4733 6.48534 14.6049 5.99392C14.731 5.52339 14.8389 5.04769 14.8728 4.55956C14.8864 4.36459 14.8958 4.1688 14.8948 3.97359C14.8938 3.81792 14.8771 3.66201 14.8615 3.50681C14.8439 3.32897 14.7901 3.16039 14.7158 2.99815C14.6177 2.78441 14.4657 2.60903 14.3056 2.44245C14.1775 2.30907 14.0366 2.18753 13.8969 2.06611C13.6977 1.89285 13.4738 1.75454 13.2412 1.63171C12.9776 1.49168 12.6984 1.38339 12.4094 1.30911C12.2343 1.26441 12.0551 1.23121 11.8778 1.19578C11.814 1.18288 11.75 1.15625 11.6862 1.15625H10.4848C10.4414 1.15625 10.3984 1.17866 10.3546 1.18358C10.067 1.21561 9.78271 1.26981 9.50668 1.35533C9.40345 1.38735 9.30913 1.36718 9.21106 1.35814C9.13586 1.35122 9.06195 1.33104 8.98676 1.32729C8.70028 1.31298 8.41346 1.29198 8.1271 1.29503C7.85271 1.29784 7.58114 1.34301 7.31554 1.41844C7.09324 1.48155 6.87574 1.55863 6.67655 1.67547C6.59126 1.72544 6.52369 1.71606 6.43548 1.6906C6.13903 1.60508 5.84047 1.52472 5.53934 1.45727C5.35164 1.41527 5.15866 1.39439 4.96698 1.37433C4.78304 1.35521 4.59839 1.34371 4.4135 1.33984C4.23308 1.33597 4.05136 1.33609 3.87176 1.35204C3.58569 1.37691 3.30371 1.43651 3.03205 1.52953C2.73118 1.63227 2.45005 1.7856 2.20078 1.98294C1.94657 2.18413 1.74268 2.42978 1.57868 2.71027C1.40588 3.00625 1.2874 3.3231 1.21372 3.65591C1.17384 3.83622 1.14862 4.02157 1.12128 4.2047C1.11272 4.26171 1.20715 4.31872 1.08984 4.3755V5.17251C1.20715 5.22554 1.11424 5.27844 1.12105 5.33159C1.13735 5.45934 1.15178 5.58815 1.17337 5.71496C1.20751 5.91568 1.24798 6.11581 1.28927 6.31524C1.34661 6.59397 1.40707 6.87206 1.47064 7.14944C1.51709 7.35121 1.57 7.55182 1.62537 7.75136C1.70995 8.05614 1.79324 8.3615 1.88885 8.66287C1.97765 8.94289 2.07936 9.21892 2.18025 9.49496C2.31997 9.8768 2.48725 10.2463 2.68786 10.6005C2.86136 10.9071 3.05961 11.1943 3.32556 11.4306C3.50082 11.5863 3.69591 11.7059 3.92302 11.7657C4.10145 11.8127 4.28282 11.8183 4.46547 11.7809C4.67357 11.7385 4.86798 11.6454 5.03138 11.5098C5.0505 11.4941 5.0715 11.4821 5.09414 11.5109C5.18036 11.6202 5.2958 11.693 5.41651 11.756C5.74228 11.9259 6.09727 11.9768 6.45788 11.9976C6.54516 12.0026 6.63338 11.99 6.72136 11.9876C6.89275 11.9829 7.05934 11.9495 7.22322 11.9021C7.30909 11.8772 7.39297 11.8456 7.48037 11.8162C7.48494 11.9092 7.49081 11.9988 7.4935 12.0885L7.5057 12.5772C7.50793 12.6516 7.51087 12.7262 7.51779 12.8002C7.5355 12.9911 7.55286 13.182 7.57562 13.3723C7.59146 13.5035 7.60788 13.6357 7.63874 13.7637C7.70059 14.022 7.78531 14.2744 7.89189 14.5177C7.99393 14.754 8.15076 14.9625 8.34941 15.126C8.60984 15.3414 8.91508 15.4332 9.24472 15.4503C9.38104 15.4574 9.52123 15.4507 9.65543 15.4263C9.86873 15.3884 10.0797 15.3385 10.2874 15.2768C10.7086 15.1496 11.0728 14.93 11.3448 14.5751C11.4997 14.3729 11.6268 14.1541 11.7085 13.9125C11.7758 13.713 11.8393 13.5115 11.8897 13.3072C11.9296 13.1463 11.9493 12.9803 11.9736 12.8159C11.9897 12.7072 11.9993 12.5974 12.0094 12.4878C12.0258 12.3098 12.0426 12.132 12.0544 11.9537C12.0627 11.8296 12.0623 11.7049 12.0672 11.5805C12.0688 11.5426 12.0749 11.505 12.0784 11.4672C12.0817 11.4322 12.0993 11.4201 12.1349 11.4207C12.2606 11.4226 12.3864 11.4259 12.5117 11.4203C12.6521 11.4139 12.7939 11.4079 12.932 11.3847C13.129 11.3518 13.3243 11.3101 13.5174 11.2596C13.7454 11.2 13.9544 11.0932 14.1556 10.9716C14.39 10.83 14.6036 10.6638 14.777 10.4499C14.9277 10.2632 14.9992 10.0475 14.9628 9.81193ZM14.5626 9.92713C14.5548 10.0345 14.5057 10.1264 14.4343 10.205C14.0978 10.5761 13.6756 10.8012 13.1926 10.9121C13.0091 10.9541 12.8198 10.9759 12.632 10.9933C12.4715 11.0074 12.3103 11.0112 12.1493 11.0046C12.0313 11.0002 11.9143 10.9732 11.7937 10.9558C11.7816 11.0661 11.7701 11.181 11.7561 11.2956L11.6999 11.7349C11.6829 11.8741 11.6697 12.0139 11.6522 12.153C11.6351 12.288 11.6137 12.4226 11.5958 12.5576C11.579 12.6834 11.5667 12.8097 11.548 12.9352C11.5193 13.1276 11.4918 13.3205 11.4543 13.5113C11.4092 13.7395 11.3401 13.9605 11.2274 14.1663C11.0899 14.4174 10.8949 14.6088 10.6468 14.7505C10.3911 14.8967 10.1115 14.9727 9.82811 15.0363C9.62751 15.0813 9.42081 15.0887 9.21762 15.0704C8.86522 15.0385 8.56444 14.8877 8.33709 14.6145C8.12006 14.3537 7.97319 14.0548 7.92063 13.7165C7.8961 13.5555 7.87689 13.3936 7.86303 13.2313C7.84747 13.0509 7.83578 12.8702 7.82796 12.6893C7.81756 12.4599 7.80986 12.2303 7.80485 12.0006C7.79863 11.7184 7.79664 11.4361 7.79265 11.1539L7.79194 11.1431C7.64836 11.2292 7.50723 11.3235 7.35754 11.4011C7.18261 11.4916 6.99112 11.5456 6.79468 11.5599C6.64007 11.5716 6.48346 11.5823 6.32954 11.57C6.07721 11.5497 5.82511 11.5101 5.59916 11.3859C5.50754 11.3355 5.41194 11.2741 5.34882 11.1935C5.19749 11.0004 5.26999 10.7564 5.49816 10.639C5.65583 10.5577 5.82792 10.5238 5.99884 10.4842C6.14761 10.4505 6.29482 10.4102 6.44005 10.3635C6.5834 10.3166 6.67385 10.2003 6.76313 10.0863L6.9046 9.90437C6.8456 9.89816 6.78999 9.89182 6.73438 9.88666C6.56557 9.8707 6.40451 9.82425 6.25048 9.75597C6.11862 9.69767 6.11662 9.69134 6.01996 9.79621C5.85854 9.97147 5.70158 10.1508 5.54344 10.329C5.42707 10.4601 5.3114 10.5919 5.19561 10.7233C5.08088 10.8533 4.97343 10.9907 4.8499 11.1116C4.66642 11.2912 4.44529 11.3993 4.18146 11.3871C4.01218 11.3793 3.85721 11.32 3.71785 11.2229C3.4302 11.0226 3.2364 10.7423 3.05997 10.448C2.83391 10.0708 2.6604 9.66905 2.51189 9.25623C2.40912 8.97093 2.30589 8.68539 2.21615 8.39599C2.11866 8.08148 2.03314 7.76298 1.94903 7.44459C1.8862 7.20405 1.82824 6.96226 1.77518 6.71938C1.7133 6.44354 1.65605 6.16668 1.60343 5.88893C1.56847 5.70135 1.54818 5.51107 1.51991 5.3222C1.48178 5.06764 1.47474 4.81072 1.48858 4.5551C1.5009 4.32482 1.53398 4.09513 1.56683 3.86637C1.61235 3.54987 1.71664 3.25119 1.86668 2.96918C1.95853 2.79638 2.07256 2.6393 2.20442 2.49336C2.42086 2.25381 2.68281 2.08066 2.97421 1.95068C3.17786 1.85988 3.39301 1.80522 3.61227 1.76251C3.93769 1.69917 4.26604 1.70163 4.59451 1.70843C4.7381 1.71137 4.8811 1.73753 5.02457 1.75172C5.33346 1.78246 5.63624 1.84745 5.93514 1.92769C6.15299 1.98611 6.36638 2.06177 6.58247 2.12747C6.60417 2.13404 6.63596 2.13345 6.65367 2.12184C6.94648 1.93074 7.26651 1.80463 7.60683 1.73248C7.73599 1.70515 7.86925 1.69318 8.00134 1.68474C8.16194 1.67453 8.32383 1.66515 8.48408 1.67441C8.6767 1.68544 8.86839 1.71383 9.05984 1.74011C9.15275 1.75278 9.24343 1.78504 9.33658 1.79384C9.38116 1.79806 9.42843 1.76545 9.47559 1.75454C9.71596 1.69905 9.95528 1.63723 10.1978 1.59335C10.3783 1.56074 10.5627 1.54537 10.7463 1.53481C10.951 1.52308 11.1572 1.51452 11.3618 1.52437C11.6209 1.5372 11.8783 1.57344 12.1308 1.63265C12.4449 1.70574 12.7461 1.8119 13.0325 1.95924C13.2464 2.06928 13.4499 2.19692 13.633 2.35388C13.753 2.45688 13.8758 2.55859 13.9842 2.67332C14.1179 2.81479 14.2544 2.95639 14.3383 3.13763C14.4014 3.2743 14.4464 3.41578 14.4588 3.56547C14.4743 3.75152 14.4931 3.93828 14.4913 4.12457C14.4897 4.30277 14.4654 4.48085 14.4482 4.65857C14.409 5.06377 14.3209 5.46016 14.2139 5.85127C14.1244 6.17435 14.0231 6.49405 13.9102 6.80971C13.8071 7.10076 13.6881 7.38652 13.5679 7.67112C13.4794 7.88193 13.3832 8.08943 13.2795 8.29322C13.0828 8.67871 12.8782 9.0602 12.6416 9.42328C12.6008 9.48604 12.562 9.55033 12.5222 9.61438C12.6254 9.68406 12.7424 9.70858 12.8601 9.72125C12.9722 9.73345 13.0864 9.74072 13.1983 9.7324C13.3775 9.71914 13.556 9.69356 13.7341 9.66858C13.9105 9.64394 14.0835 9.59373 14.2646 9.60699C14.4455 9.62013 14.5749 9.75762 14.5626 9.92713ZM11.9802 9.53379C11.9033 9.43454 11.825 9.33647 11.7498 9.23605C11.6318 9.07839 11.547 8.9023 11.4618 8.7254C11.3811 8.55776 11.2821 8.39904 11.197 8.23328C11.0486 7.9441 10.8975 7.65587 10.7609 7.36107C10.589 6.99072 10.4535 6.60723 10.4108 6.19699C10.3927 6.02337 10.3882 5.84998 10.4232 5.67801C10.4794 5.40338 10.6229 5.18858 10.8641 5.04124C11.0878 4.90457 11.3371 4.86047 11.5925 4.84662C11.751 4.83806 11.9101 4.8451 12.0746 4.8451L12.0691 4.81729C11.9668 4.60344 11.8712 4.38594 11.7593 4.17713C11.6014 3.88244 11.3994 3.61673 11.1744 3.37038C11.0077 3.18796 10.8271 3.01868 10.6293 2.86911C10.4348 2.72188 10.2299 2.59038 10.0112 2.4828C9.75045 2.35458 9.47888 2.25545 9.19393 2.19222C8.92012 2.13146 8.64456 2.09427 8.36372 2.09122C8.12417 2.08864 7.88614 2.09943 7.65281 2.15351C7.30064 2.23504 6.97851 2.38004 6.69825 2.6149C6.5432 2.74493 6.40464 2.89346 6.28567 3.05716C6.14537 3.2499 6.03216 3.45801 5.93538 3.67621C5.80258 3.97559 5.71143 4.28717 5.64914 4.60742C5.61793 4.76709 5.59353 4.92815 5.56866 5.0891C5.55998 5.14541 5.55928 5.20301 5.55423 5.26753C5.59752 5.24501 5.62873 5.22765 5.66064 5.21216L5.76446 5.16559C6.11557 5.00499 6.47935 4.90164 6.87035 4.91349C7.03646 4.91853 7.19542 4.95138 7.34311 5.02411C7.62642 5.16383 7.79218 5.40139 7.86421 5.70205C7.91395 5.90958 7.94797 6.12121 7.98105 6.33225C8.00697 6.49707 8.03349 6.66365 8.03654 6.82988C8.04088 7.07283 8.02856 7.31626 8.0153 7.55909C8.00392 7.76558 7.9612 7.96913 7.88861 8.16277C7.75722 8.51388 7.61082 8.85925 7.47403 9.20837C7.42887 9.32368 7.39414 9.44311 7.35144 9.56992C7.41737 9.56992 7.47086 9.56945 7.52436 9.57015C7.54524 9.57051 7.56659 9.57109 7.58677 9.5759C7.74396 9.61297 7.88028 9.68418 7.99208 9.80513C8.14118 9.96608 8.21943 10.1539 8.22341 10.3713C8.22564 10.4917 8.21297 10.6126 8.21356 10.7331C8.21602 11.2945 8.22025 11.856 8.22494 12.4173C8.22576 12.509 8.23034 12.6009 8.23691 12.6925C8.25063 12.8843 8.26447 13.0762 8.28324 13.2676C8.29638 13.4033 8.31468 13.5388 8.33615 13.6736C8.36653 13.8646 8.45346 14.0345 8.55212 14.197C8.63705 14.3367 8.74744 14.4555 8.89291 14.5373C9.14008 14.6765 9.40626 14.6881 9.67455 14.6368C9.8558 14.6022 10.0338 14.5466 10.2097 14.4892C10.3828 14.4337 10.5408 14.3393 10.6716 14.2131C10.7949 14.0936 10.8824 13.9479 10.9414 13.787C11.0559 13.4751 11.0916 13.1466 11.1389 12.8207C11.1567 12.6987 11.172 12.5764 11.1882 12.4541C11.2066 12.315 11.2253 12.176 11.2431 12.037C11.2563 11.9334 11.2682 11.8296 11.2809 11.726C11.299 11.5772 11.3181 11.4286 11.3353 11.2797C11.3486 11.1646 11.3598 11.0491 11.3716 10.9338C11.3867 10.7864 11.403 10.6391 11.416 10.4915C11.4261 10.3795 11.422 10.2655 11.4418 10.1555C11.4783 9.95399 11.5736 9.78249 11.7522 9.67163C11.827 9.62529 11.9113 9.59479 11.9943 9.55561L11.9802 9.53379ZM5.22342 8.70651C5.13432 8.49698 5.08064 8.27411 5.06458 8.04699C5.04956 7.83289 5.07502 7.61962 5.09696 7.40647C5.11831 7.2 5.13602 6.99259 5.14224 6.78519C5.15256 6.44428 5.12957 6.10385 5.11326 5.76317C5.10341 5.56034 5.12699 5.35505 5.14505 5.15175C5.16136 4.96863 5.18165 4.78503 5.21626 4.60461C5.27433 4.30183 5.3514 4.00339 5.46097 3.7141C5.56503 3.43983 5.68457 3.17271 5.85338 2.93222C5.96905 2.76728 6.10032 2.61314 6.22643 2.45195L6.189 2.43869C5.77865 2.30836 5.36161 2.20654 4.93272 2.16208C4.72989 2.14108 4.52636 2.12876 4.32294 2.11668C4.26053 2.11292 4.19718 2.12137 4.13454 2.12735C3.97945 2.14213 3.82249 2.148 3.66987 2.17709C3.41014 2.22648 3.16097 2.30954 2.93022 2.4448C2.72305 2.56621 2.54908 2.72317 2.40338 2.91146C2.24243 3.11933 2.13415 3.35443 2.05637 3.60512C1.96452 3.90086 1.92076 4.20517 1.90891 4.51229C1.89859 4.78151 1.89342 5.05227 1.93988 5.32044C1.97449 5.52011 1.9976 5.72188 2.03572 5.92072C2.08769 6.19183 2.14341 6.46235 2.20782 6.73064C2.29991 7.11472 2.39188 7.49938 2.50098 7.87876C2.60539 8.24231 2.72317 8.60257 2.8508 8.95849C2.95521 9.24896 3.07592 9.53402 3.20309 9.81533C3.28591 9.99857 3.38621 10.1749 3.49132 10.3465C3.60312 10.5287 3.73028 10.7016 3.90285 10.8338C4.12058 11.0008 4.28915 11.0267 4.5104 10.8436C4.60519 10.7651 4.68531 10.6682 4.76778 10.5759C4.89882 10.4292 5.02528 10.2786 5.15573 10.1315C5.32184 9.94402 5.49007 9.75855 5.657 9.57203C5.69231 9.53261 5.72621 9.49202 5.76058 9.45214L5.70381 9.40228C5.49764 9.20577 5.33412 8.96893 5.22342 8.70651ZM11.5216 3.12614C11.6581 3.28482 11.7876 3.44937 11.9098 3.61931C12.1444 3.94884 12.3319 4.30465 12.47 4.68532C12.5311 4.85307 12.5799 5.02247 12.5581 5.20606C12.5429 5.33464 12.5442 5.46509 12.5328 5.59436C12.5233 5.70194 12.5063 5.80893 12.4924 5.91615C12.4715 6.0778 12.4412 6.23899 12.4322 6.40135C12.4236 6.55584 12.4325 6.71199 12.4423 6.86684C12.4521 7.02415 12.4734 7.18076 12.4878 7.33784C12.5041 7.51592 12.526 7.694 12.5311 7.87243C12.5352 8.01895 12.5222 8.16641 12.5094 8.3127C12.4941 8.4889 12.4494 8.65947 12.3828 8.82312C12.336 8.93832 12.28 9.05 12.2271 9.16531L12.2484 9.18784L12.2806 9.21282L12.3131 9.15464C12.5875 8.72277 12.8314 8.27225 13.043 7.80638C13.1784 7.50565 13.307 7.20189 13.4286 6.89534C13.6191 6.41859 13.7699 5.92846 13.8865 5.4286C13.9388 5.20419 13.9788 4.97637 14.0144 4.74855C14.042 4.57047 14.0652 4.39028 14.0703 4.21056C14.0758 4.01993 14.0653 3.82778 14.0477 3.63761C14.0345 3.49403 13.9991 3.3495 13.9091 3.23277C13.7645 3.04484 13.6083 2.86512 13.4163 2.72294C13.2547 2.60316 13.0936 2.48034 12.9201 2.37957C12.645 2.22003 12.3472 2.11374 12.0361 2.04136C11.7325 1.97062 11.425 1.94012 11.1154 1.93367C10.9328 1.9298 10.7495 1.94939 10.5673 1.96652C10.4022 1.982 10.2382 2.0084 10.072 2.03022C10.2503 2.13052 10.4262 2.21968 10.592 2.32479C10.9408 2.54568 11.2533 2.81151 11.5216 3.12614ZM6.99047 9.31101C7.10321 8.95052 7.25677 8.60633 7.40552 8.26002C7.52612 7.97918 7.59205 7.68332 7.61398 7.37949C7.62489 7.22968 7.62184 7.078 7.61445 6.92772C7.60712 6.76054 7.59177 6.5938 7.56847 6.42809C7.53726 6.21682 7.50172 6.00542 7.45174 5.79802C7.39754 5.5736 7.26088 5.41734 7.02672 5.35974C6.88407 5.32467 6.74236 5.32607 6.59819 5.34883C6.24602 5.40432 5.92365 5.53407 5.62333 5.72411C5.56292 5.76235 5.52972 5.79321 5.54016 5.8799C5.56221 6.06349 5.56702 6.25001 5.5662 6.43537C5.56503 6.69767 5.55388 6.95998 5.54391 7.22217C5.54063 7.30757 5.52831 7.39251 5.51916 7.47756C5.50508 7.60777 5.47798 7.73787 5.4788 7.86785C5.47962 8.00182 5.49335 8.13896 5.52585 8.2687C5.62908 8.68011 5.84775 9.0168 6.20613 9.25435C6.42656 9.4004 6.67045 9.47408 6.93815 9.48804C6.95634 9.42657 6.97253 9.3685 6.99047 9.31101ZM6.5698 5.78147C6.52264 5.68246 6.54962 5.60046 6.65895 5.56245C6.68558 5.55307 6.71303 5.5431 6.74072 5.5404C6.77873 5.53665 6.81744 5.53946 6.85592 5.53946C6.99458 5.54017 7.12796 5.55952 7.24246 5.64774C7.3159 5.70428 7.3356 5.77936 7.28809 5.85644C7.22064 5.96577 7.11776 6.02067 6.99141 6.03123C6.79234 6.04777 6.65262 5.95498 6.5698 5.78147ZM12.0881 5.74534C12.1041 5.61348 12.1169 5.48128 12.1332 5.34942C12.1397 5.29639 12.1118 5.28208 12.0673 5.28079C11.9275 5.27692 11.7877 5.27199 11.6478 5.26941C11.4902 5.2666 11.3367 5.29193 11.1908 5.35188C11.0289 5.41851 10.9056 5.52527 10.8553 5.70147C10.8185 5.83141 10.8068 5.96718 10.8209 6.1015C10.8405 6.3092 10.8876 6.51338 10.9609 6.7087C11.0587 6.96925 11.1611 7.22968 11.2835 7.47932C11.4492 7.81729 11.6368 8.14447 11.8129 8.47728C11.8599 8.56609 11.8995 8.65876 11.9485 8.76247C12.0474 8.5563 12.1014 8.33152 12.107 8.10294C12.1118 7.91407 12.0967 7.72438 12.0856 7.53539C12.0787 7.41972 12.0624 7.30476 12.0512 7.18932C12.0354 7.02849 12.0116 6.86777 12.008 6.70659C12.0044 6.54271 12.016 6.37788 12.03 6.21424C12.0433 6.05727 12.0692 5.9016 12.0881 5.74534ZM11.7727 5.61841C11.7207 5.76188 11.6096 5.84283 11.4655 5.86664C11.3312 5.8887 11.2136 5.83907 11.126 5.73197C11.0638 5.65572 11.0876 5.56539 11.1809 5.51389C11.2882 5.45453 11.4061 5.43951 11.5451 5.43048C11.5829 5.4374 11.6397 5.44315 11.6938 5.45863C11.7723 5.48081 11.8013 5.53981 11.7727 5.61841ZM7.61727 10.0363C7.54043 9.97359 7.43884 9.96995 7.36575 10.0388C7.27507 10.1244 7.1953 10.2224 7.11553 10.319C7.02344 10.4305 6.9371 10.5465 6.81826 10.633C6.64535 10.7586 6.4438 10.8107 6.24121 10.86C6.08014 10.8992 5.91837 10.9355 5.75683 10.9732L5.75484 10.9941C5.80282 11.0162 5.84927 11.0439 5.89925 11.0598C6.1456 11.1378 6.39618 11.1766 6.65649 11.1546C6.84442 11.1386 7.02344 11.0977 7.19307 11.0172C7.42652 10.9066 7.60612 10.7313 7.75886 10.5274C7.78444 10.4934 7.79605 10.4431 7.7991 10.3992C7.80954 10.2442 7.73082 10.129 7.61727 10.0363ZM13.6882 10.0981C13.49 10.1193 13.2915 10.1418 13.0926 10.1532C12.9967 10.1587 12.8993 10.1404 12.8024 10.1325C12.6399 10.1194 12.4813 10.0833 12.344 9.99646C12.2644 9.94637 12.1984 9.94074 12.1139 9.96913C11.9933 10.0097 11.8949 10.0714 11.8658 10.2021C11.846 10.2904 11.8388 10.3819 11.8308 10.4724C11.8293 10.4883 11.8493 10.5177 11.8645 10.5217C11.9575 10.5462 12.051 10.5752 12.1462 10.5837C12.263 10.5943 12.382 10.5909 12.4996 10.585C12.6267 10.5787 12.7546 10.5705 12.8797 10.5493C13.1748 10.4998 13.4602 10.4191 13.7137 10.2518C13.8051 10.1914 13.8956 10.1297 13.9864 10.0686L13.9789 10.0557C13.882 10.0701 13.7856 10.0877 13.6882 10.0981Z" fill="#336791"/>
</svg>
