<svg width="18" height="18" viewBox="0 0 18 18" fill="none" xmlns="http://www.w3.org/2000/svg">
<g clip-path="url(#clip0_10474_6942)">
<path d="M8.99965 10.6289C9.90339 10.6289 10.636 9.8992 10.636 8.99904C10.636 8.09887 9.90339 7.36914 8.99965 7.36914C8.09591 7.36914 7.36328 8.09887 7.36328 8.99904C7.36328 9.8992 8.09591 10.6289 8.99965 10.6289Z" fill="#087EA4"/>
<path d="M8.99823 12.6763C13.5169 12.6763 17.1801 11.0344 17.1801 9.00906C17.1801 6.98369 13.5169 5.3418 8.99823 5.3418C4.47953 5.3418 0.816406 6.98369 0.816406 9.00906C0.816406 11.0344 4.47953 12.6763 8.99823 12.6763Z" stroke="#087EA4" stroke-width="0.750001"/>
<path d="M5.80756 10.8411C8.06691 14.739 11.326 17.0779 13.087 16.0652C14.848 15.0525 14.444 11.0717 12.1847 7.17387C9.92531 3.27603 6.66619 0.937157 4.9052 1.94984C3.14421 2.96253 3.54821 6.9433 5.80756 10.8411Z" stroke="#087EA4" stroke-width="0.750001"/>
<path d="M5.80933 7.17555C3.54998 11.0734 3.14598 15.0542 4.90697 16.0668C6.66795 17.0795 9.92708 14.7407 12.1864 10.8428C14.4458 6.94498 14.8498 2.96421 13.0888 1.95152C11.3278 0.938834 8.06868 3.27771 5.80933 7.17555Z" stroke="#087EA4" stroke-width="0.750001"/>
</g>
<defs>
<clipPath id="clip0_10474_6942">
<rect width="18" height="16.519" fill="white" transform="translate(0 0.75)"/>
</clipPath>
</defs>
</svg>
