<svg width="16" height="16" viewBox="0 0 16 16" fill="none" xmlns="http://www.w3.org/2000/svg">
<path d="M8.65877 11.8899C8.65184 11.8042 8.64774 11.7491 8.64774 11.7491C8.64774 11.7491 8.38895 10.0025 8.08042 9.48101C8.03185 9.39807 8.08547 9.05939 8.22202 8.5566C8.30179 8.69373 8.6373 9.28299 8.7051 9.4728C8.78112 9.68677 8.79661 9.74813 8.79661 9.74813C8.79661 9.74813 8.61243 8.80002 8.31047 8.2469C8.38386 8.00035 8.46224 7.75531 8.54556 7.51194C8.6597 7.71254 8.93421 8.19927 8.99463 8.36831C9.00659 8.40269 9.01715 8.43201 9.0263 8.45911C9.029 8.44304 9.03217 8.42697 9.03498 8.41055C8.96577 8.1168 8.82969 7.60579 8.64363 7.22782C9.05657 5.07774 10.4656 2.20409 11.9096 0.921875H2.4882C1.85625 0.921875 1.33984 1.43875 1.33984 2.07023V12.4605C1.33984 13.092 1.85672 13.6088 2.48832 13.6088H8.69372C8.64671 13.0372 8.63507 12.4631 8.65888 11.89" fill="#0B7FCC"/>
<path d="M8.21924 8.55664C8.29901 8.69366 8.63452 9.28256 8.70221 9.47272C8.77835 9.68669 8.79383 9.74805 8.79383 9.74805C8.79383 9.74805 8.60965 8.79994 8.30769 8.24682C8.38115 8.00009 8.45953 7.75487 8.54279 7.51128C8.64684 7.6951 8.88557 8.11766 8.97121 8.31744L8.98082 8.2047C8.90481 7.91189 8.78926 7.52829 8.64086 7.22774C9.02118 5.24858 10.2457 2.65612 11.565 1.25684H2.48531C2.26965 1.25702 2.06288 1.34277 1.91037 1.49525C1.75787 1.64773 1.67209 1.85449 1.67188 2.07015V11.7026C3.72799 10.9129 6.20759 10.1916 8.3416 10.2228C8.26276 9.91721 8.17255 9.64094 8.07765 9.48093C8.02908 9.39799 8.08269 9.05896 8.21924 8.55664Z" fill="url(#paint0_linear_10490_3364)"/>
<path d="M14.1071 0.582017C13.4619 0.00648834 12.6802 0.237943 11.9094 0.922101C11.7904 1.02859 11.6763 1.14051 11.5676 1.25749C10.2478 2.65655 9.02381 5.24877 8.64349 7.22804C8.79153 7.52871 8.90744 7.9122 8.98299 8.20501C9.00269 8.28009 9.02053 8.35071 9.03484 8.41077C9.06827 8.55237 9.0861 8.64493 9.0861 8.64493C9.0861 8.64493 9.07425 8.59999 9.02569 8.45934C9.01654 8.43236 9.00598 8.40256 8.99401 8.36866C8.98897 8.35399 8.9817 8.33651 8.97384 8.31774C8.88773 8.11796 8.64947 7.69541 8.54495 7.51217C8.45556 7.77612 8.37637 8.02365 8.30985 8.24712C8.61228 8.80025 8.79658 9.74835 8.79658 9.74835C8.79658 9.74835 8.78051 9.687 8.70484 9.47302C8.63704 9.28286 8.30117 8.69408 8.22187 8.55694C8.08532 9.05915 8.03124 9.3983 8.08028 9.48135C8.17518 9.64113 8.26492 9.91798 8.34423 10.2231C8.52301 10.9114 8.64759 11.7496 8.64759 11.7496C8.64759 11.7496 8.65123 11.8046 8.65862 11.8903C8.63481 12.4634 8.64645 13.0374 8.69346 13.6091C8.75259 14.3258 8.86392 14.9421 9.00598 15.2716L9.10311 15.2189C8.89418 14.5696 8.80937 13.7182 8.84644 12.7371C8.90275 11.2363 9.24787 9.42716 9.88534 7.5415C10.9635 4.69436 12.4589 2.41054 13.8272 1.3199C12.5799 2.44632 10.8918 6.09259 10.3863 7.44296C9.82082 8.95521 9.41985 10.3739 9.17784 11.7335C9.59429 10.4591 10.943 9.91165 10.943 9.91165C10.943 9.91165 11.6043 9.0954 12.3774 7.9305C11.914 8.03643 11.1538 8.21697 10.8995 8.32373C10.5241 8.48139 10.4224 8.53489 10.4224 8.53489C10.4224 8.53489 11.639 7.79442 12.683 7.45903C14.1182 5.19844 15.6817 1.9867 14.1073 0.582134" fill="#003956"/>
<defs>
<linearGradient id="paint0_linear_10490_3364" x1="7.37614" y1="1.46966" x2="7.37614" y2="11.1212" gradientUnits="userSpaceOnUse">
<stop stop-color="#95D7F4"/>
<stop offset="0.92" stop-color="#0F7FCC"/>
<stop offset="1" stop-color="#0F7FCC"/>
</linearGradient>
</defs>
</svg>
