<svg width="13" height="16" viewBox="-0.5 0 13 16" fill="none" xmlns="http://www.w3.org/2000/svg">
<g clip-path="url(#clip0_10488_9943)">
<path d="M6.01309 5.7914C9.04494 5.7914 11.5027 4.77936 11.5027 3.53095C11.5027 2.28254 9.04494 1.27051 6.01309 1.27051C2.98124 1.27051 0.523438 2.28254 0.523438 3.53095C0.523438 4.77936 2.98124 5.7914 6.01309 5.7914Z" stroke="#DF6C20" stroke-width="0.968762"/>
<path d="M0.523438 3.53125V13.2189C0.548808 13.5162 0.715925 13.8105 1.01525 14.0852C1.31457 14.3599 1.74023 14.6094 2.26793 14.8196C2.79563 15.0299 3.41504 15.1966 4.09078 15.3104C4.76653 15.4241 5.48538 15.4827 6.20629 15.4827C6.9272 15.4827 7.63606 15.4241 8.29238 15.3104C8.94871 15.1966 9.53965 15.0299 10.0315 14.8196C10.5233 14.6094 10.9064 14.3599 11.1588 14.0852C11.4112 13.8105 11.5281 13.5162 11.5027 13.2189V3.53125M0.523438 6.76046C0.548808 7.05775 0.715925 7.35212 1.01525 7.62678C1.31457 7.90144 1.74023 8.151 2.26793 8.36122C2.79563 8.57143 3.41504 8.73819 4.09078 8.85195C4.76653 8.96572 5.48538 9.02428 6.20629 9.02428C6.9272 9.02428 7.63606 8.96572 8.29238 8.85195C8.94871 8.73819 9.53965 8.57143 10.0315 8.36122C10.5233 8.151 10.9064 7.90144 11.1588 7.62678C11.4112 7.35212 11.5281 7.05775 11.5027 6.76046M0.523438 9.98967C0.548808 10.287 0.715925 10.5813 1.01525 10.856C1.31457 11.1307 1.74023 11.3802 2.26793 11.5904C2.79563 11.8006 3.41504 11.9674 4.09078 12.0812C4.76653 12.1949 5.48538 12.2535 6.20629 12.2535C6.9272 12.2535 7.63606 12.1949 8.29238 12.0812C8.94871 11.9674 9.53965 11.8006 10.0315 11.5904C10.5233 11.3802 10.9064 11.1307 11.1588 10.856C11.4112 10.5813 11.5281 10.287 11.5027 9.98967" stroke="#DF6C20" stroke-width="0.968762"/>
</g>
<defs>
<clipPath id="clip0_10488_9943">
<rect width="12.0127" height="15.2419" fill="white" transform="translate(0.0078125 0.753906)"/>
</clipPath>
</defs>
</svg>
