<svg width="17" height="11" viewBox="0 0 17 11" fill="none" xmlns="http://www.w3.org/2000/svg">
<path d="M8.50001 0.299805C6.29996 0.299805 4.92544 1.39938 4.375 3.59942C5.19975 2.49972 6.16255 2.08735 7.26225 2.36231C7.89015 2.5188 8.33888 2.9741 8.83581 3.47864C9.64457 4.29938 10.5807 5.24955 12.625 5.24955C14.8249 5.24955 16.1996 4.14985 16.75 1.94929C15.9251 3.04964 14.9625 3.46201 13.8626 3.18705C13.2349 3.03043 12.7867 2.57526 12.2891 2.07072C11.4808 1.24997 10.545 0.299805 8.50001 0.299805V0.299805ZM4.375 5.24955C2.17509 5.24955 0.80043 6.34925 0.25 8.54981C1.07474 7.44947 2.03742 7.0371 3.13725 7.31206C3.76515 7.46868 4.21387 7.92385 4.71081 8.42839C5.51956 9.24913 6.45568 10.1993 8.50001 10.1993C10.6999 10.1993 12.0746 9.09973 12.625 6.89968C11.8001 7.99938 10.8375 8.41176 9.73764 8.1368C9.10987 7.98031 8.66166 7.52501 8.16408 7.02047C7.35584 6.19972 6.41998 5.24955 4.375 5.24955Z" fill="#38B2AC"/>
</svg>
