<svg width="16" height="17" viewBox="0 0 16 17" fill="none" xmlns="http://www.w3.org/2000/svg">
<path d="M0.246094 8.61427V16.3047H15.627V0.923828H0.246094V8.61427ZM12.6406 7.99903C13.009 8.08452 13.3438 8.27719 13.6028 8.55274C13.7454 8.70119 13.8694 8.86647 13.972 9.04493C13.972 9.06462 13.3075 9.51374 12.9027 9.76476C12.8879 9.7746 12.8289 9.71061 12.7637 9.61341C12.6898 9.48589 12.5848 9.37917 12.4585 9.30322C12.3322 9.22726 12.1887 9.18455 12.0414 9.17905C11.575 9.14706 11.2748 9.39192 11.2773 9.79429C11.2734 9.89446 11.2963 9.99386 11.3437 10.0822C11.4458 10.2951 11.6366 10.4218 12.2346 10.6802C13.3358 11.154 13.8071 11.4665 14.1 11.9107C14.4273 12.4029 14.4999 13.1978 14.2784 13.7859C14.0323 14.4258 13.4293 14.8601 12.5766 15.0041C12.1872 15.0487 11.7937 15.0446 11.4052 14.9918C10.8124 14.8956 10.2655 14.6134 9.84376 14.1858C9.70226 14.0296 9.42663 13.6223 9.44386 13.5927C9.48878 13.5594 9.53607 13.5294 9.58536 13.5029L10.1514 13.1781L10.5931 12.9221L10.6854 13.0587C10.8411 13.2815 11.0394 13.4714 11.2686 13.6174C11.7608 13.8758 12.4327 13.8401 12.7649 13.5411C12.8764 13.4315 12.946 13.2863 12.9615 13.1307C12.9771 12.9751 12.9375 12.819 12.8498 12.6896C12.7268 12.5185 12.4807 12.3746 11.7928 12.0743C10.9992 11.7323 10.6571 11.5206 10.3446 11.1835C10.1495 10.961 10.0054 10.6985 9.92251 10.4144C9.86069 10.0899 9.85154 9.75752 9.89544 9.43007C10.0591 8.66348 10.6337 8.12823 11.4729 7.9695C11.8615 7.92141 12.2552 7.9322 12.6406 8.00149V7.99903ZM9.03042 8.6438V9.2738H7.03337V14.9623H5.6171V9.27257H3.61512V8.65733C3.60975 8.44554 3.6155 8.2336 3.63235 8.02241C3.63973 8.01257 4.86282 8.00764 6.33938 8.01011H9.02304L9.03042 8.6438Z" fill="#007ACC"/>
</svg>
