<svg width="15" height="16" viewBox="0 0 15 16" fill="none" xmlns="http://www.w3.org/2000/svg">
<g clip-path="url(#clip0_10474_6976)">
<path d="M14.6227 2.44443L7.89104 14.562C7.75206 14.8122 7.39498 14.8137 7.25391 14.5647L0.388792 2.4456C0.235103 2.17429 0.465567 1.84566 0.770978 1.90061L7.50982 3.11317C7.55281 3.1209 7.59682 3.12083 7.63981 3.11295L14.2377 1.90235C14.5421 1.8465 14.7737 2.17259 14.6227 2.44443Z" fill="url(#paint0_linear_10474_6976)"/>
<path d="M10.721 0.310197L5.73936 1.29283C5.65749 1.30898 5.59686 1.37883 5.59193 1.46266L5.28549 6.67267C5.27828 6.79538 5.39023 6.89062 5.50921 6.863L6.89616 6.54078C7.02593 6.51066 7.14318 6.62571 7.11651 6.75708L6.70445 8.78833C6.67672 8.92504 6.80422 9.04194 6.93684 9.00139L7.79349 8.73938C7.92629 8.6988 8.0539 8.81603 8.02581 8.95285L7.37096 12.1435C7.32999 12.3431 7.5937 12.4519 7.70367 12.2808L7.77714 12.1665L11.8364 4.01146C11.9044 3.87491 11.7872 3.71921 11.6382 3.74816L10.2106 4.02552C10.0764 4.05156 9.96227 3.92579 10.0001 3.79366L10.9319 0.541945C10.9698 0.409589 10.8553 0.283708 10.721 0.310197Z" fill="url(#paint1_linear_10474_6976)"/>
</g>
<defs>
<linearGradient id="paint0_linear_10474_6976" x1="0.221175" y1="1.46754" x2="8.67157" y2="12.8678" gradientUnits="userSpaceOnUse">
<stop stop-color="#41D1FF"/>
<stop offset="1" stop-color="#BD34FE"/>
</linearGradient>
<linearGradient id="paint1_linear_10474_6976" x1="7.12412" y1="0.57698" x2="8.65952" y2="11.0399" gradientUnits="userSpaceOnUse">
<stop stop-color="#FFEA83"/>
<stop offset="0.0833333" stop-color="#FFDD35"/>
<stop offset="1" stop-color="#FFA800"/>
</linearGradient>
<clipPath id="clip0_10474_6976">
<rect width="15" height="14.879" fill="white" transform="translate(0 0.25)"/>
</clipPath>
</defs>
</svg>
